PathFileType	4	(X/Y/Z)	./resultDataOpenSim/trcMotMarkerGrf/sub10/qtm-02-01.trc
DataRate	CameraRate	NumFrames	NumMarkers	Units	OrigDataRate	OrigDataStartFrame	OrigNumFrames
250.000000	250.000000	8	24	m	250.000000	1	461
Frame#	Time	L.Toe.Tip			R.Toe.Tip			L.Ankle.Lat			R.Ankle.Lat			L.Ankle.Med			R.Ankle.Med			L.Heel			R.Heel			L.Knee.Lat			R.Knee.Lat			L.Knee.Med			R.Knee.Med			L.Thigh.Upper			R.Thigh.Upper			L.ASIS			R.ASIS			V.Sacral			L.Acromium			R.Acromium			C7			L.Elbow			R.Elbow			L.Wrist.Lat			R.Wrist.Lat
		X1	Y1	Z1	X2	Y2	Z2	X3	Y3	Z3	X4	Y4	Z4	X5	Y5	Z5	X6	Y6	Z6	X7	Y7	Z7	X8	Y8	Z8	X9	Y9	Z9	X10	Y10	Z10	X11	Y11	Z11	X12	Y12	Z12	X13	Y13	Z13	X14	Y14	Z14	X15	Y15	Z15	X16	Y16	Z16	X17	Y17	Z17	X18	Y18	Z18	X19	Y19	Z19	X20	Y20	Z20	X21	Y21	Z21	X22	Y22	Z22	X23	Y23	Z23	X24	Y24	Z24

1	0	-1.5190549	0.037786313	-0.17797858	-1.021831	0.081250667	-0.040909977	-1.650195	0.066183481	-0.20809391	-1.1638894	0.067182825	-0.02401661	-1.6472818	0.089030827	-0.12539855	-1.1391514	0.10319559	-0.1009971	NaN	NaN	NaN	-1.1981792	0.034280179	-0.081357306	-1.5250577	0.43200769	-0.24495578	-1.2014137	0.46413149	0.022302749	-1.5294851	0.41305001	-0.12375106	-1.1756037	0.47890653	-0.10366653	-1.4180914	0.8097033	-0.30802693	-1.3587867	0.84859795	0.071791942	-1.3394281	0.91454181	-0.25549548	-1.2985957	0.93158974	-0.012849278	-1.5145694	0.94996135	-0.10000699	-1.337341	1.39899	-0.27909884	-1.3687468	1.3871224	0.045933057	-1.435895	1.4284518	-0.1274452	-1.3635409	1.0555467	-0.35872058	-1.4932713	1.0614006	0.1003067	-1.1719415	0.90261047	-0.31248771	-1.364933	0.85543714	0.14147513
2	0.004	-1.5190766	0.037772264	-0.17800016	-1.0065333	0.082782147	-0.040022634	-1.6503426	0.066584965	-0.20782274	-1.1483744	0.066827518	-0.022698632	-1.6455934	0.089934349	-0.12463938	-1.1243995	0.10328048	-0.099689755	NaN	NaN	NaN	-1.1820695	0.033367878	-0.079769925	-1.5232553	0.43176405	-0.24488011	-1.1963009	0.46274194	0.023079419	-1.5277803	0.41272363	-0.12341491	-1.1701084	0.47748538	-0.10300325	-1.4142337	0.80900503	-0.30780439	-1.3537996	0.84716213	0.072132676	-1.3353843	0.91367436	-0.25513091	-1.2936442	0.93040685	-0.012603678	-1.5100081	0.94846424	-0.099273605	-1.3329824	1.3977747	-0.27905106	-1.362835	1.3860147	0.046395649	-1.4316497	1.4272537	-0.12746534	-1.3567326	1.0539898	-0.35826805	-1.4898826	1.0603528	0.10039763	-1.1631939	0.90384802	-0.31103609	-1.3636024	0.85410761	0.14285717
3	0.008	-1.5191047	0.037761245	-0.17800474	-0.99133067	0.084304393	-0.039099222	-1.6504233	0.066989416	-0.20749519	-1.1329477	0.066609024	-0.021306311	-1.6447062	0.090552277	-0.12410192	-1.1097544	0.10344663	-0.098346807	NaN	NaN	NaN	-1.1660982	0.032604894	-0.078115795	-1.5214135	0.43151331	-0.24476031	-1.1911388	0.46133698	0.023892153	-1.5258485	0.41240704	-0.12311465	-1.1646624	0.47600982	-0.10234463	-1.4103694	0.80831764	-0.30759047	-1.3487284	0.84571847	0.072494101	-1.331306	0.91278417	-0.25477745	-1.2886939	0.92920526	-0.012353935	-1.5054313	0.94695237	-0.098527013	-1.3286135	1.3965292	-0.27898896	-1.3575454	1.3849081	0.046699678	-1.4273788	1.4260311	-0.12748983	-1.3499427	1.0524443	-0.35776508	-1.4865442	1.0594031	0.10053938	-1.1543432	0.90509923	-0.30952031	-1.3622727	0.85278454	0.14425771
4	0.012	-1.51914	0.037752563	-0.1779903	-0.97629582	0.085814871	-0.038093222	-1.6504022	0.067407581	-0.20708946	-1.1176304	0.066605119	-0.019792885	-1.6447253	0.090837694	-0.12379531	-1.0952559	0.10375058	-0.096949124	NaN	NaN	NaN	-1.1503385	0.032085059	-0.07634267	-1.5195174	0.43125841	-0.24457967	-1.1858709	0.4599078	0.024768398	-1.5236444	0.41209585	-0.12284529	-1.1592919	0.47444772	-0.10168899	-1.4064838	0.80762981	-0.30739031	-1.343545	0.84424942	0.072874212	-1.3271698	0.91186058	-0.25442845	-1.2837223	0.92797804	-0.012109579	-1.5008322	0.94540538	-0.097766176	-1.3242084	1.3952445	-0.27891078	-1.352883	1.3837875	0.04683282	-1.4230679	1.4247737	-0.12752123	-1.3431459	1.0509088	-0.3572212	-1.483296	1.0586903	0.10078216	-1.1454423	0.90635442	-0.30793001	-1.3609095	0.85147104	0.14568101
5	0.016	-1.5191808	0.037745088	-0.17796514	-0.96147101	0.087357655	-0.037004357	-1.6502761	0.067857565	-0.20663871	-1.1024553	0.066825159	-0.018166592	-1.6449937	0.091007418	-0.1235243	-1.0809356	0.10421526	-0.095492238	NaN	NaN	NaN	-1.1348318	0.031830931	-0.074420532	-1.5175723	0.43100954	-0.24435002	-1.180509	0.45845143	0.025696323	-1.5213019	0.41178666	-0.12256664	-1.1540164	0.47279812	-0.10103447	-1.4025714	0.80691522	-0.30720204	-1.3382822	0.84276064	0.073259775	-1.3229855	0.91090211	-0.25407881	-1.2786981	0.92673262	-0.011883174	-1.4962175	0.9438084	-0.096997661	-1.3197548	1.3939388	-0.27882015	-1.3484723	1.3826358	0.046889544	-1.4187171	1.42349	-0.12753285	-1.3363041	1.0493705	-0.35668575	-1.4801071	1.0582276	0.10112268	-1.1366554	0.9075935	-0.3063235	-1.359482	0.85017059	0.147117
6	0.02	-1.5192264	0.037738972	-0.17793691	-0.94684268	0.089029582	-0.035893527	-1.6500438	0.068356781	-0.20621268	-1.0874739	0.067248581	-0.016464736	-1.6447187	0.091332326	-0.12308857	-1.0668266	0.10483845	-0.09397988	NaN	NaN	NaN	-1.1195764	0.031810972	-0.072324757	-1.5155751	0.43077717	-0.24410106	-1.1751544	0.45695185	0.02663227	-1.5189559	0.41148615	-0.12223967	-1.1488501	0.4710753	-0.10038082	-1.3986342	0.80616821	-0.3070299	-1.3329539	0.84128223	0.07364869	-1.3187876	0.90989934	-0.25374441	-1.2735819	0.9254821	-0.011676721	-1.4915881	0.94216046	-0.096223898	-1.3152631	1.3926362	-0.27871921	-1.344045	1.3814542	0.046946447	-1.4143273	1.4221931	-0.12748758	-1.3293976	1.0478201	-0.35617936	-1.4768654	1.0578561	0.10150134	-1.1280368	0.90882385	-0.30475614	-1.3580104	0.84888196	0.14855471
7	0.024	-1.5192749	0.037734116	-0.17791009	-0.93241388	0.090910535	-0.034809584	-1.6497092	0.068911918	-0.20586163	-1.0727242	0.067860786	-0.0147111	-1.6437425	0.091875868	-0.12248381	-1.0529652	0.10560459	-0.092425369	NaN	NaN	NaN	-1.1045659	0.031976371	-0.070055058	-1.5135071	0.43056429	-0.24386483	-1.169884	0.45539259	0.027551653	-1.5166354	0.41119576	-0.12185442	-1.1438005	0.4692921	-0.099726654	-1.3946795	0.80541518	-0.30688926	-1.3275523	0.83982568	0.07403827	-1.3146023	0.90884168	-0.25344254	-1.2683428	0.92423783	-0.011487241	-1.4869394	0.94047409	-0.09544662	-1.3107475	1.3913404	-0.27861026	-1.3395416	1.3802627	0.047018726	-1.4099065	1.4208885	-0.12739348	-1.3224377	1.0462627	-0.35568311	-1.4734784	1.0574229	0.10186616	-1.1195196	0.91006894	-0.30323354	-1.3565221	0.847596	0.14999387
8	0.028	-1.5193206	0.037730104	-0.17788694	-0.91824697	0.093023264	-0.033749455	-1.6493472	0.069515581	-0.20555915	-1.0582101	0.068657036	-0.012907522	-1.6425184	0.092494897	-0.12186541	-1.0393888	0.10648936	-0.09084442	NaN	NaN	NaN	-1.0898488	0.032289281	-0.067690709	-1.5113423	0.43035974	-0.24365421	-1.164637	0.45378792	0.028475127	-1.5142577	0.41090572	-0.12144018	-1.1388664	0.46745266	-0.099068448	-1.3907144	0.80467477	-0.30678375	-1.3220831	0.83837249	0.07441145	-1.3104053	0.9077414	-0.25316186	-1.262983	0.92300049	-0.011316138	-1.4822707	0.93876518	-0.094673521	-1.3061992	1.3900317	-0.27849302	-1.3349775	1.3790764	0.047101197	-1.405467	1.4195758	-0.1272973	-1.3154494	1.0447097	-0.35518564	-1.4699306	1.0568894	0.10220701	-1.1110449	0.9113343	-0.30173659	-1.3549762	0.84630304	0.15144551
